#define iconify_hover_width 11
#define iconify_hover_height 11
static unsigned char iconify_hover_bits[] = {
   0x00, 0x00, 0x00, 0x00, 0x00, 0x00, 0x00, 0x00, 0x00, 0x00, 0x00, 0x00,
   0x00, 0x00, 0x00, 0x00, 0xff, 0x07, 0xff, 0x07, 0xff, 0x07 };
